<svg width="32" height="32" viewBox="0 0 32 32" fill="none" xmlns="http://www.w3.org/2000/svg">
<g clip-path="url(#clip0_10_1106)">
<path fill-rule="evenodd" clip-rule="evenodd" d="M6.4 4.1376C6.4 3.2544 7.1168 3.2 8 3.2H24C24.8832 3.2 25.6 3.2544 25.6 4.1376V6.13604L16.7152 10.5792C16.2656 10.8032 15.7344 10.8032 15.2848 10.5792L6.4 6.13604V4.1376ZM3.6416 8.33438L14.5696 13.7984C15.4704 14.2496 16.5296 14.2496 17.4304 13.7984L28.3584 8.33438C28.6288 8.19998 28.8 7.92324 28.8 7.61924V2.5376C28.8 0.769598 27.368 0 25.6 0H6.4C4.632 0 3.2 0.769598 3.2 2.5376V7.61924C3.2 7.92324 3.3712 8.19998 3.6416 8.33438ZM28.8 26.5376C28.8 27.4208 28.0832 28.8 27.2 28.8H4.8C3.9168 28.8 3.2 27.4208 3.2 26.5376V16.1856C3.2 15.592 3.8256 15.2048 4.3584 15.4704C11.04 18.8112 8.98721 17.7856 14.5904 20.5872C15.4784 21.032 16.5248 21.0384 17.4176 20.6032C22.9712 17.9088 20.6368 19.0352 27.6544 15.6656C28.184 15.4096 28.8 15.7968 28.8 16.3872V26.5376ZM27.3696 12.0288L16.7152 17.3568C16.2656 17.5808 15.7344 17.5808 15.2848 17.3568L4.6304 12.0288C2.504 10.9664 0 12.5136 0 14.8912V28.1376C0 29.9056 1.432 32 3.2 32H28.8C30.568 32 32 29.9056 32 28.1376V14.8912C32 12.5136 29.496 10.9664 27.3696 12.0288Z" fill="white"/>
</g>
<defs>
<clipPath id="clip0_10_1106">
<rect width="32" height="32" fill="white"/>
</clipPath>
</defs>
</svg>
