<svg width="43" height="45" viewBox="0 0 43 45" fill="none" xmlns="http://www.w3.org/2000/svg">
<path d="M21.5 27.1875V30.9375M12.5417 18.804C13.3863 18.75 14.4276 18.75 15.7667 18.75H27.2334C28.5724 18.75 29.6138 18.75 30.4584 18.804M12.5417 18.804C11.4876 18.8713 10.7398 19.0228 10.1015 19.3631C9.09011 19.9024 8.26785 20.7628 7.75253 21.8212C7.16669 23.0246 7.16669 24.5996 7.16669 27.75V30.375C7.16669 33.5254 7.16669 35.1004 7.75253 36.3037C8.26785 37.3622 9.09011 38.2226 10.1015 38.7619C11.2513 39.375 12.7564 39.375 15.7667 39.375H27.2334C30.2437 39.375 31.7487 39.375 32.8986 38.7619C33.91 38.2226 34.7322 37.3622 35.2475 36.3037C35.8334 35.1004 35.8334 33.5254 35.8334 30.375V27.75C35.8334 24.5996 35.8334 23.0246 35.2475 21.8212C34.7322 20.7628 33.91 19.9024 32.8986 19.3631C32.2602 19.0228 31.5124 18.8713 30.4584 18.804M12.5417 18.804V15C12.5417 9.82234 16.5525 5.625 21.5 5.625C26.4475 5.625 30.4584 9.82234 30.4584 15V18.804" stroke="white" stroke-width="5.33333" stroke-linecap="round" stroke-linejoin="round"/>
</svg>
